<svg width="147" height="137" viewBox="0 0 147 137" fill="none" xmlns="http://www.w3.org/2000/svg">
<path d="M143.831 73C115.081 103.5 73.25 102.872 73.25 102.872C73.25 102.872 33.75 103.5 3 73V92.8715C11.7755 150.694 143.831 144.086 143.831 92.8715V73Z" fill="#2F2F2F"/>
<path d="M122.75 43.1434C106.357 -11.1285 41.0714 -9.6285 23.25 43.1434L73.25 102.872C73.25 102.872 43 52.5 43 43.1434C43 33.7868 59 31 63 43.1434C67 55.2868 73.25 102.872 73.25 102.872C73.25 102.872 75.5 57.1434 83 43.1434C90.5 29.1434 102 36 103 43.1434C104 50.2868 73.25 102.872 73.25 102.872L122.75 43.1434Z" fill="#2F2F2F"/>
<path d="M73.25 102.872L23.25 43.1434C41.0714 -9.6285 106.357 -11.1285 122.75 43.1434L73.25 102.872ZM73.25 102.872C73.25 102.872 115.081 103.5 143.831 73V92.8715C143.831 144.086 11.7755 150.694 3 92.8715V73C33.75 103.5 73.25 102.872 73.25 102.872ZM73.25 102.872C73.25 102.872 67 55.2868 63 43.1434C59 31 43 33.7868 43 43.1434C43 52.5 73.25 102.872 73.25 102.872ZM73.25 102.872C73.25 102.872 75.5 57.1434 83 43.1434C90.5 29.1434 102 36 103 43.1434C104 50.2868 73.25 102.872 73.25 102.872Z" stroke="#3187A8" stroke-width="5"/>
</svg>
