<svg version="1.1" id="Layer_1" xmlns="http://www.w3.org/2000/svg" xmlns:xlink="http://www.w3.org/1999/xlink" x="0px" y="0px"
	viewBox="0 0 512 512" style="enable-background:new 0 0 512 512;" xml:space="preserve">
<g>
	<g>
		<path d="M469.753,192.336c-5.494-52.534-30.163-101.081-69.462-136.7C360.708,19.758,309.464,0,256,0
			S151.292,19.758,111.709,55.635c-39.299,35.619-63.968,84.167-69.462,136.7l-0.579,5.54L256,512l214.332-314.124L469.753,192.336z
			M78.037,197.278c8.686-5.129,18.61-7.883,28.889-7.883c13.539,0,26.471,4.77,36.758,13.482l61.827,181.225L78.037,197.278z
			M240.81,393.479L174.506,199.13c9.348-6.317,20.356-9.735,31.803-9.735c12.567,0,24.61,4.112,34.501,11.669V393.479z
			M271.189,201.064h0.001c9.891-7.556,21.934-11.669,34.501-11.669c11.447,0,22.455,3.418,31.802,9.735l-66.304,194.349V201.064z
			M306.489,384.101l61.827-181.224c10.286-8.712,23.219-13.482,36.758-13.482c10.279,0,20.203,2.753,28.888,7.883L306.489,384.101z
			"/>
	</g>
</g>
<g>
</g>
<g>
</g>
<g>
</g>
<g>
</g>
<g>
</g>
<g>
</g>
<g>
</g>
<g>
</g>
<g>
</g>
<g>
</g>
<g>
</g>
<g>
</g>
<g>
</g>
<g>
</g>
<g>
</g>
</svg>